# xmcd
#
# Track frame offsets:
#	150
#	10860
#	24253
#	35565
#	48227
#	64530
#	80418
#	90912
#	104633
#	117611
#
# Disc length: 1788 seconds
#
# Revision: 0
# Processed by: cddbd v1.5.2PL0 Copyright (c) Steve Scherf et al.
# Submitted via: EasyCDDAExtractor 8.2.3.1
#
DISCID=7306fa0a
DTITLE=Ed Russ And The Old Fashioned Quartet - Faith Music Missions Presents
DYEAR=2008
DGENRE=gospel
TTITLE0=Jesus Is Coming Soon
TTITLE1=City Of Gold
TTITLE2=Heaven's Jubilee
TTITLE3=The Rainbow Of Love
TTITLE4=How About Your Heart?
TTITLE5=On The Jericho Road
TTITLE6=Gettin Ready Today
TTITLE7=Hide Me Rock Of Ages
TTITLE8=His Grace Is Sufficient For Me
TTITLE9=Learning To Lean
EXTD=
EXTT0=
EXTT1=
EXTT2=
EXTT3=
EXTT4=
EXTT5=
EXTT6=
EXTT7=
EXTT8=
EXTT9=
PLAYORDER=
